# This file uses centimeters as units for non-parametric coordinates.

mtllib WindowSlant.mtl
g default
v -8.000000 0.067044 32.000000
v 0.000000 0.067044 32.000000
v -8.000000 8.067044 32.000000
v 0.000000 8.067044 32.000000
v -8.000000 8.067044 29.067507
v 0.000000 8.067044 29.067507
v -8.000000 8.067044 -29.067511
v 0.000000 8.067044 -29.067511
v -8.000000 8.067044 -32.000000
v 0.000000 8.067044 -32.000000
v -8.000000 0.067044 -32.000000
v 0.000000 0.067044 -32.000000
v -8.000000 0.067044 -29.067507
v 0.000000 0.067044 -29.067507
v -8.000000 0.067044 29.067511
v 0.000000 0.067044 29.067511
v -5.717310 8.067044 32.000000
v -2.282690 8.067044 32.000000
v -2.282690 8.067044 29.067507
v -5.717310 8.067044 29.067507
v -2.282690 8.067044 -29.067511
v -5.717310 8.067044 -29.067511
v -2.282690 8.067044 -32.000000
v -5.717310 8.067044 -32.000000
v -4.236207 8.067044 32.000000
v -3.763792 8.067044 32.000000
v -3.763792 8.067044 29.067507
v -4.236207 8.067044 29.067507
v -4.236207 8.067044 29.067507
v -3.763792 8.067044 29.067507
v -3.763792 8.067044 -29.067511
v -4.236207 8.067044 -29.067511
v -4.236207 8.067044 -29.067511
v -3.763792 8.067044 -29.067511
v -3.763792 8.067044 -32.000000
v -4.236207 8.067044 -32.000000
v -100.744980 93.111706 32.000000
v -100.272568 93.102070 32.000000
v -100.272568 93.102070 29.067507
v -100.744980 93.108502 29.067509
v -100.272568 93.102070 29.067507
v -100.272568 93.102070 -29.067511
v -100.744980 93.102070 -29.067511
v -100.744980 93.102070 -29.067511
v -100.272568 93.102070 -29.067511
v -100.272568 93.102070 -32.000000
v -100.744980 93.102070 -32.000000
v -5.554815 10.869508 32.000000
v -5.554815 10.869508 29.067507
v -7.035918 10.869508 29.067507
v -7.035918 10.869508 32.000000
v -8.989435 10.869508 32.000000
v -8.989435 10.869508 29.067507
v -7.508333 10.869508 32.000000
v -7.508333 10.869508 29.067507
v -5.554815 10.869508 -29.067511
v -5.554815 10.869508 -32.000000
v -7.035918 10.869508 -32.000000
v -7.035918 10.869508 -29.067511
v -8.989435 10.869508 -29.067511
v -8.989435 10.869508 -32.000000
v -7.508333 10.869508 -29.067511
v -7.508333 10.869508 -32.000000
v -102.217392 93.102070 32.000000
v -98.800156 93.102070 32.000000
v -98.800156 93.102070 29.067507
v -102.217392 93.102070 29.067507
v -103.510429 95.399685 29.067507
v -103.079979 95.399685 29.067507
v -103.079979 95.399685 -29.067511
v -103.510429 95.399685 -29.067511
v -102.217392 93.102070 -29.067511
v -98.800156 93.102070 -29.067511
v -98.800156 93.102070 -32.000000
v -102.217392 93.102070 -32.000000
v -105.003822 95.399449 32.000000
v -101.586586 95.399449 32.000000
v -101.586586 95.399449 29.067507
v -105.003822 95.399449 29.067507
v -105.003822 95.399449 -29.067511
v -101.586586 95.399449 -29.067511
v -101.586586 95.399449 -32.000000
v -105.003822 95.399449 -32.000000
v -107.290184 95.399685 29.067507
v -99.300224 95.399685 29.067507
v -99.300224 95.399685 -29.067511
v -107.290184 95.399685 -29.067511
v -107.306305 95.399449 32.000000
v -99.284103 95.399449 32.000000
v -99.284103 95.399449 29.067507
v -107.306305 95.399449 29.067507
v -107.306305 95.399449 -29.067511
v -99.284103 95.399449 -29.067511
v -99.284111 95.399449 -32.000000
v -107.306305 95.399449 -32.000000
v -107.306305 103.301533 32.000000
v -99.284103 103.301533 32.000000
v -99.284103 103.301533 29.067507
v -107.306305 103.301533 29.067507
v -107.290184 103.301770 29.067507
v -99.300224 103.301770 29.067507
v -99.300224 103.301770 -29.067511
v -107.290184 103.301770 -29.067511
v -107.306305 103.301533 -29.067511
v -99.284103 103.301533 -29.067511
v -99.284111 103.301533 -32.000000
v -107.306305 103.301533 -32.000000
vt 0.487573 0.694218
vt 0.487572 0.746872
vt 0.434916 0.746869
vt 0.434920 0.694215
vt 0.434918 0.731845
vt 0.434913 0.709239
vt 0.434918 0.722097
vt 0.011832 -0.000888
vt 0.416474 0.731847
vt 0.416473 0.722098
vt 0.014941 0.558794
vt 0.011832 0.558857
vt 0.042351 0.698632
vt 0.095151 0.698632
vt 0.095151 0.717933
vt 0.042351 0.717933
vt 0.460358 0.837741
vt 0.460358 0.890329
vt 0.077726 0.890329
vt 0.077726 0.837741
vt 0.342468 0.723646
vt 0.289668 0.723645
vt 0.289668 0.704344
vt 0.342468 0.704345
vt 0.961458 0.694213
vt 0.961463 0.746868
vt 0.908807 0.746872
vt 0.908805 0.694218
vt 0.961460 0.709238
vt 0.961461 0.731844
vt 0.961460 0.718986
vt 0.961461 0.722095
vt 0.979905 0.709236
vt 0.979906 0.718984
vt 0.979906 0.722093
vt 0.979907 0.731842
vt 0.901865 0.551096
vt 0.921166 0.551075
vt 0.889505 0.746872
vt 0.889505 0.694218
vt 0.506873 0.746872
vt 0.506873 0.694218
vt 0.434924 0.718989
vt 0.014941 -0.000888
vt 0.217567 0.652333
vt 0.908806 0.746872
vt 0.908806 0.799526
vt 0.889505 0.799526
vt 0.198266 0.652335
vt 0.506873 0.799526
vt 0.487572 0.746872
vt 0.487572 0.799526
vt 0.908806 0.694218
vt 0.921166 0.009796
vt 0.889505 0.641564
vt 0.908806 0.641564
vt 0.901865 0.009796
vt 0.506873 0.641564
vt 0.487572 0.694218
vt 0.487572 0.641564
vt 0.487572 0.799526
vt 0.270367 0.704345
vt 0.506873 0.814550
vt 0.487572 0.814550
vt 0.270367 0.652336
vt 0.889505 0.814548
vt 0.289669 0.652334
vt 0.908806 0.814552
vt 0.889505 0.824298
vt 0.506873 0.824299
vt 0.198266 0.704345
vt 0.487572 0.641564
vt 0.487572 0.626541
vt 0.506873 0.626538
vt 0.217567 0.704345
vt 0.889505 0.626536
vt 0.506873 0.616791
vt 0.889505 0.616791
vt 0.908806 0.641563
vt 0.908806 0.626542
vt 0.397193 0.725498
vt 0.416493 0.725467
vt 0.416510 0.735215
vt 0.397208 0.735246
vt 0.434938 0.725434
vt 0.434978 0.748040
vt 0.434961 0.738291
vt 0.434955 0.735182
vt 0.434955 0.735182
vt 0.434961 0.738291
vt 0.416533 0.748073
vt 0.416516 0.738325
vt 0.342469 0.652335
vt 0.317624 0.637214
vt 0.506869 0.608093
vt 0.487568 0.608096
vt 0.487567 0.598347
vt 0.506868 0.598345
vt 0.871053 0.832975
vt 0.871035 0.855581
vt 0.871043 0.845833
vt 0.871045 0.842724
vt 0.871045 0.842724
vt 0.871043 0.845833
vt 0.889498 0.832990
vt 0.889491 0.842738
vt 0.889488 0.845848
vt 0.889480 0.855596
vt 0.304823 0.652335
vt 0.908798 0.833000
vt 0.908793 0.842749
vt 0.304823 0.637214
vt 0.908817 0.608100
vt 0.889516 0.608088
vt 0.889523 0.598343
vt 0.908824 0.598349
vt 0.819332 0.009796
vt 0.838633 0.009796
vt 0.838633 0.569478
vt 0.819332 0.569478
vt 0.020443 0.005337
vt 0.403075 0.005337
vt 0.403075 0.565019
vt 0.020443 0.565019
vt 0.403075 0.580141
vt 0.020443 0.580141
vt 0.408158 0.005337
vt 0.790790 0.005337
vt 0.790790 0.565061
vt 0.408158 0.565019
vt 0.790790 0.580141
vt 0.408158 0.580141
vt 0.844284 0.009796
vt 0.863585 0.009796
vt 0.863585 0.569478
vt 0.844284 0.569478
vt 0.799320 0.004302
vt 0.802430 0.004302
vt 0.802430 0.563984
vt 0.799320 0.563984
vt 0.876913 0.009796
vt 0.896214 0.009796
vt 0.896214 0.569478
vt 0.876913 0.569478
vt 0.289661 0.622056
vt 0.434921 0.751146
vt 0.416476 0.751148
vt 0.289657 0.612364
vt 0.434917 0.702796
vt 0.314514 0.637214
vt 0.270360 0.622063
vt 0.416472 0.702797
vt 0.110311 0.631497
vt 0.232730 0.617911
vt 0.232721 0.637213
vt 0.242412 0.637215
vt 0.460358 0.785731
vt 0.460358 0.760854
vt 0.416482 0.719025
vt 0.416463 0.709278
vt 0.242421 0.617915
vt 0.077726 0.967217
vt 0.512368 0.837741
vt 0.289666 0.637178
vt 0.346615 0.652336
vt 0.460358 0.942339
vt 0.023050 0.646623
vt 0.346616 0.637215
vt 0.908783 0.861194
vt 0.889482 0.861183
vt 0.327315 0.637214
vt 0.327314 0.652335
vt 0.077726 0.760854
vt 0.110306 0.646618
vt 0.171401 0.646627
vt 0.171403 0.631507
vt 0.889521 0.579902
vt 0.908822 0.579900
vt 0.023050 0.698632
vt 0.025716 0.837742
vt 0.067197 0.631565
vt 0.070306 0.631503
vt 0.079997 0.631500
vt 0.057506 0.631502
vt 0.079997 0.646622
vt 0.057506 0.646622
vt 0.095152 0.646623
vt 0.042351 0.646623
vt 0.460358 0.967217
vt 0.077726 0.785731
vt 0.057503 0.627320
vt 0.070295 0.612203
vt 0.079986 0.612198
vt 0.077726 0.942339
vt 0.139301 0.631504
vt 0.142410 0.631547
vt 0.152102 0.631505
vt 0.129611 0.631503
vt 0.152100 0.646626
vt 0.129608 0.646624
vt 0.167255 0.646627
vt 0.114454 0.646623
vt 0.167251 0.698637
vt 0.114451 0.698633
vt 0.067322 0.612264
vt 0.095157 0.627323
vt 0.080002 0.627320
vt 0.057631 0.612201
vt 0.527426 0.862277
vt 0.527510 0.865386
vt 0.512378 0.865452
vt 0.512359 0.862619
vt 0.010609 0.865729
vt 0.010580 0.862620
vt 0.025710 0.862620
vt 0.025723 0.865453
vt 0.025717 0.890330
vt 0.245522 0.637214
vt 0.255213 0.637214
vt 0.217578 0.633029
vt 0.255213 0.652335
vt 0.232721 0.652337
vt 0.512368 0.890329
vt 0.270365 0.637183
vt 0.232733 0.633038
vt 0.042348 0.627323
vt 0.270356 0.612373
vn 0.000000 0.000000 1.000000
vn 0.000000 0.000000 1.000000
vn 0.000000 0.000000 1.000000
vn 0.000000 0.000000 1.000000
vn 0.000000 1.000000 0.000000
vn 0.000000 1.000000 0.000000
vn 0.000000 1.000000 0.000000
vn 0.000000 1.000000 0.000000
vn 0.000000 1.000000 0.000000
vn 0.000000 1.000000 0.000000
vn 0.000000 1.000000 0.000000
vn 0.000000 1.000000 0.000000
vn 0.000000 1.000000 -0.000003
vn 0.000000 1.000000 -0.000003
vn 0.000000 1.000000 -0.000003
vn 0.000000 1.000000 -0.000003
vn 0.000000 0.000000 -1.000000
vn 0.000000 0.000000 -1.000000
vn 0.000000 0.000000 -1.000000
vn 0.000000 0.000000 -1.000000
vn 0.000000 -1.000000 0.000000
vn 0.000000 -1.000000 0.000000
vn 0.000000 -1.000000 0.000000
vn 0.000000 -1.000000 0.000000
vn 0.000000 -1.000000 0.000000
vn 0.000000 -1.000000 0.000000
vn 0.000000 -1.000000 0.000000
vn 0.000000 -1.000000 0.000000
vn 1.000000 0.000000 0.000000
vn 1.000000 0.000000 0.000000
vn 1.000000 0.000000 0.000000
vn 1.000000 0.000000 0.000000
vn 1.000000 0.000000 0.000000
vn 1.000000 0.000000 0.000000
vn 1.000000 0.000000 0.000000
vn 1.000000 0.000000 0.000000
vn -1.000000 0.000000 0.000000
vn -1.000000 0.000000 0.000000
vn -1.000000 0.000000 0.000000
vn -1.000000 0.000000 0.000000
vn -1.000000 0.000000 0.000000
vn -1.000000 0.000000 0.000000
vn -1.000000 0.000000 0.000000
vn -1.000000 0.000000 0.000000
vn 0.000000 0.000000 0.000000
vn 0.000000 0.000000 0.000000
vn 0.000000 0.000000 0.000000
vn 0.000000 0.000000 0.000000
vn 0.000000 1.000000 0.000000
vn 0.000000 1.000000 0.000000
vn 0.000000 1.000000 0.000000
vn 0.000000 1.000000 0.000000
vn 0.000000 1.000000 0.000000
vn 0.000000 1.000000 0.000000
vn 0.000000 1.000000 0.000000
vn 0.000000 1.000000 0.000000
vn 0.000000 1.000000 0.000000
vn 0.000000 1.000000 0.000000
vn 0.000000 1.000000 0.000000
vn 0.000000 1.000000 0.000000
vn 0.000000 1.000000 0.000000
vn 0.000000 1.000000 0.000000
vn 0.000000 1.000000 0.000000
vn 0.000000 1.000000 0.000000
vn 0.000000 1.000000 0.000000
vn 0.000000 1.000000 0.000000
vn 0.000000 1.000000 0.000000
vn 0.000000 1.000000 0.000000
vn 0.000000 0.000000 0.000000
vn 0.000000 0.000000 0.000000
vn 0.000000 0.000000 0.000000
vn 0.000000 0.000000 0.000000
vn 0.000000 1.000000 0.000000
vn 0.000000 1.000000 0.000000
vn 0.000000 1.000000 0.000000
vn 0.000000 1.000000 0.000000
vn 0.000000 0.000000 0.000000
vn 0.000000 0.000000 0.000000
vn 0.000000 0.000000 0.000000
vn 0.000000 0.000000 0.000000
vn 0.000000 1.000000 0.000000
vn 0.000000 1.000000 0.000000
vn 0.000000 1.000000 0.000000
vn 0.000000 1.000000 0.000000
vn 0.000000 0.000000 0.000000
vn 0.000000 0.000000 0.000000
vn 0.000000 0.000000 0.000000
vn 0.000000 0.000000 0.000000
vn 0.000000 1.000000 0.000000
vn 0.000000 1.000000 0.000000
vn 0.000000 1.000000 0.000000
vn 0.000000 1.000000 0.000000
vn 0.000000 0.000000 0.000000
vn 0.000000 0.000000 0.000000
vn 0.000000 0.000000 0.000000
vn 0.000000 0.000000 0.000000
vn 0.000000 1.000000 0.000000
vn 0.000000 1.000000 0.000000
vn 0.000000 1.000000 0.000000
vn 0.000000 1.000000 0.000000
vn 0.000000 0.000000 0.000000
vn 0.000000 0.000000 0.000000
vn 0.000000 0.000000 0.000000
vn 0.000000 0.000000 0.000000
vn 0.000000 1.000000 0.000000
vn 0.000000 1.000000 0.000000
vn 0.000000 1.000000 0.000000
vn 0.000000 1.000000 0.000000
vn 0.000000 0.000000 0.000000
vn 0.000000 0.000000 0.000000
vn 0.000000 0.000000 0.000000
vn 0.000000 0.000000 0.000000
vn 0.000000 1.000000 0.000000
vn 0.000000 1.000000 0.000000
vn 0.000000 1.000000 0.000000
vn 0.000000 1.000000 0.000000
vn 0.000000 0.000000 0.000000
vn 0.000000 0.000000 0.000000
vn 0.000000 0.000000 0.000000
vn 0.000000 0.000000 0.000000
vn 0.000000 1.000000 0.000000
vn 0.000000 1.000000 0.000000
vn 0.000000 1.000000 0.000000
vn 0.000000 1.000000 0.000000
vn 0.000000 0.000000 1.000000
vn 0.000000 0.000000 1.000000
vn 0.000000 0.000000 1.000000
vn 0.000000 0.000000 1.000000
vn 0.661098 0.750300 0.000000
vn 0.661098 0.750300 0.000000
vn 0.661098 0.750300 0.000000
vn 0.661098 0.750300 0.000000
vn 0.661098 0.750300 0.000000
vn 0.661098 0.750300 0.000000
vn 0.661098 0.750300 0.000000
vn 0.661098 0.750300 0.000000
vn -0.661112 -0.750287 0.000042
vn -0.661112 -0.750287 0.000042
vn -0.661112 -0.750287 0.000042
vn -0.661112 -0.750287 0.000042
vn 0.661098 0.750300 0.000000
vn 0.661098 0.750300 0.000000
vn 0.661098 0.750300 0.000000
vn 0.661098 0.750300 0.000000
vn 0.000000 0.000000 -1.000000
vn 0.000000 0.000000 -1.000000
vn 0.000000 0.000000 -1.000000
vn 0.000000 0.000000 -1.000000
vn -0.661098 -0.750300 0.000000
vn -0.661098 -0.750300 0.000000
vn -0.661098 -0.750300 0.000000
vn -0.661098 -0.750300 0.000000
vn 0.650495 0.759511 0.000000
vn 0.650495 0.759511 0.000000
vn 0.650495 0.759511 0.000000
vn 0.650495 0.759511 0.000000
vn 0.000000 0.000000 -1.000000
vn 0.000000 0.000000 -1.000000
vn 0.000000 0.000000 -1.000000
vn 0.000000 0.000000 -1.000000
vn -0.650495 -0.759511 0.000000
vn -0.650495 -0.759511 0.000000
vn -0.650495 -0.759511 0.000000
vn -0.650495 -0.759511 0.000000
vn 0.000000 0.000000 1.000000
vn 0.000000 0.000000 1.000000
vn 0.000000 0.000000 1.000000
vn 0.000000 0.000000 1.000000
vn -0.650495 -0.759511 0.000000
vn -0.650495 -0.759511 0.000000
vn -0.650495 -0.759511 0.000000
vn -0.650495 -0.759511 0.000000
vn 0.000000 0.000000 1.000000
vn 0.000000 0.000000 1.000000
vn 0.000000 0.000000 1.000000
vn 0.000000 0.000000 1.000000
vn 0.650495 0.759511 0.000000
vn 0.650495 0.759511 0.000000
vn 0.650495 0.759511 0.000000
vn 0.650495 0.759511 0.000000
vn 0.000000 0.000000 -1.000000
vn 0.000000 0.000000 -1.000000
vn 0.000000 0.000000 -1.000000
vn 0.000000 0.000000 -1.000000
vn 0.650495 0.759510 0.000000
vn 0.650495 0.759510 0.000000
vn 0.650495 0.759510 0.000000
vn 0.650495 0.759510 0.000000
vn 0.000000 0.000000 -1.000000
vn 0.000000 0.000000 -1.000000
vn 0.000000 0.000000 -1.000000
vn 0.000000 0.000000 -1.000000
vn -0.650495 -0.759510 0.000000
vn -0.650495 -0.759510 0.000000
vn -0.650495 -0.759510 0.000000
vn -0.650495 -0.759510 0.000000
vn 0.000000 0.000000 1.000000
vn 0.000000 0.000000 1.000000
vn 0.000000 0.000000 1.000000
vn 0.000000 0.000000 1.000000
vn -0.650495 -0.759510 0.000000
vn -0.650495 -0.759510 0.000000
vn -0.650495 -0.759510 0.000000
vn -0.650495 -0.759510 0.000000
vn 0.000000 0.000000 1.000000
vn 0.000000 0.000000 1.000000
vn 0.000000 0.000000 1.000000
vn 0.000000 0.000000 1.000000
vn 0.650495 0.759510 0.000000
vn 0.650495 0.759510 0.000000
vn 0.650495 0.759510 0.000000
vn 0.650495 0.759510 0.000000
vn 0.000000 0.000000 -1.000000
vn 0.000000 0.000000 -1.000000
vn 0.000000 0.000000 -1.000000
vn 0.000000 0.000000 -1.000000
vn 0.000000 0.000000 -1.000000
vn 0.000000 0.000000 -1.000000
vn 0.000000 0.000000 1.000000
vn 0.000000 0.000000 1.000000
vn 0.000000 -1.000000 0.000000
vn 0.000000 -1.000000 0.000000
vn 0.000000 -1.000000 0.000000
vn 0.000000 -1.000000 0.000000
vn 0.000000 -0.000296 1.000000
vn 0.000000 -0.000296 1.000000
vn 0.000000 -0.000000 -1.000000
vn 0.000000 0.000000 -1.000000
vn 0.005456 -0.999985 0.000544
vn 0.005456 -0.999985 0.000544
vn 0.005456 -0.999985 0.000544
vn 0.005456 -0.999985 0.000544
vn 0.000007 0.000003 1.000000
vn 0.000007 0.000003 1.000000
vn 0.000007 0.000003 1.000000
vn 0.000007 0.000003 1.000000
vn 0.633345 0.773870 0.000000
vn 0.633345 0.773870 0.000000
vn 0.633345 0.773870 0.000000
vn 0.633345 0.773870 0.000000
vn 0.000000 0.000000 -1.000000
vn 0.000000 0.000000 -1.000000
vn 0.000000 0.000000 -1.000000
vn 0.000000 0.000000 -1.000000
vn -0.638517 -0.769608 0.000043
vn -0.638517 -0.769608 0.000043
vn -0.638517 -0.769608 0.000043
vn -0.638517 -0.769608 0.000043
vn 0.000000 0.000000 0.000000
vn 0.000000 0.000000 0.000000
vn 0.000000 0.000000 1.000000
vn 0.000000 0.000000 1.000000
vn 0.000000 -1.000000 0.000000
vn 0.000000 -1.000000 0.000000
vn 0.000000 -1.000000 0.000000
vn 0.000000 -1.000000 0.000000
vn 0.000000 0.000000 0.000000
vn 0.000000 0.000000 0.000000
vn 0.000000 0.000000 -1.000000
vn 0.000000 0.000000 -1.000000
vn 0.000000 -1.000000 0.000000
vn 0.000000 -1.000000 0.000000
vn 0.000000 -1.000000 0.000000
vn 0.000000 -1.000000 0.000000
vn 0.000000 0.000000 1.000000
vn 0.000000 0.000000 1.000000
vn 0.636149 0.771567 0.000000
vn 0.636149 0.771567 0.000000
vn 0.636149 0.771567 0.000000
vn 0.636149 0.771567 0.000000
vn 0.000000 0.000000 -1.000000
vn 0.000000 0.000000 -1.000000
vn -0.636147 -0.771568 0.000000
vn -0.636147 -0.771568 0.000000
vn -0.636147 -0.771568 0.000000
vn -0.636147 -0.771568 0.000000
vn 0.000000 0.000000 1.000000
vn 0.000000 0.000000 1.000000
vn 0.636148 0.771567 0.000000
vn 0.636148 0.771567 0.000000
vn 0.636148 0.771567 0.000000
vn 0.636148 0.771567 0.000000
vn 0.000000 0.000000 -1.000000
vn 0.000000 0.000000 -1.000000
vn -0.636148 -0.771567 0.000000
vn -0.636148 -0.771567 0.000000
vn -0.636148 -0.771567 0.000000
vn -0.636148 -0.771567 0.000000
vn 0.000000 0.000000 0.000000
vn 0.000000 0.000000 0.000000
vn 0.000000 0.000000 0.000000
vn 0.000000 0.000000 0.000000
vn 0.000000 -1.000000 0.000000
vn 0.000000 -1.000000 0.000000
vn 0.000000 -1.000000 0.000000
vn 0.000000 -1.000000 0.000000
vn 0.000000 0.000000 0.000000
vn 0.000000 0.000000 0.000000
vn 0.000000 0.000000 0.000000
vn 0.000000 0.000000 0.000000
vn 0.000000 -1.000000 0.000000
vn 0.000000 -1.000000 0.000000
vn 0.000000 -1.000000 0.000000
vn 0.000000 -1.000000 0.000000
vn 0.000000 0.000000 0.000000
vn 0.000000 0.000000 0.000000
vn 0.000000 0.000000 0.000000
vn 0.000000 0.000000 0.000000
vn 0.000000 -1.000000 0.000000
vn 0.000000 -1.000000 0.000000
vn 0.000000 -1.000000 0.000000
vn 0.000000 -1.000000 0.000000
vn 0.000000 0.000000 0.000000
vn 0.000000 0.000000 0.000000
vn 0.000000 0.000000 0.000000
vn 0.000000 0.000000 0.000000
vn 0.000000 -1.000000 0.000000
vn 0.000000 -1.000000 0.000000
vn 0.000000 -1.000000 0.000000
vn 0.000000 -1.000000 0.000000
vn 0.000000 0.000000 0.000000
vn 0.000000 0.000000 0.000000
vn 0.000000 0.000000 0.000000
vn 0.000000 0.000000 0.000000
vn 0.000000 -1.000000 0.000000
vn 0.000000 -1.000000 0.000000
vn 0.000000 -1.000000 0.000000
vn 0.000000 -1.000000 0.000000
vn 0.000000 0.000000 0.000000
vn 0.000000 0.000000 0.000000
vn 0.000000 -1.000000 0.000000
vn 0.000000 -1.000000 0.000000
vn 0.000000 -1.000000 0.000000
vn 0.000000 -1.000000 0.000000
vn 0.000000 0.000000 1.000000
vn 0.000000 0.000000 1.000000
vn 0.000000 0.000000 1.000000
vn 0.000000 0.000000 1.000000
vn 1.000000 0.000000 0.000000
vn 1.000000 0.000000 0.000000
vn 1.000000 0.000000 0.000000
vn 1.000000 0.000000 0.000000
vn 0.000000 0.000000 -1.000000
vn 0.000000 0.000000 -1.000000
vn 0.000000 0.000000 -1.000000
vn 0.000000 0.000000 -1.000000
vn -1.000000 0.000000 0.000000
vn -1.000000 0.000000 0.000000
vn -1.000000 0.000000 0.000000
vn -1.000000 0.000000 0.000000
vn 0.000000 0.000000 1.000000
vn 0.000000 0.000000 1.000000
vn 0.000000 0.000000 1.000000
vn 0.000000 0.000000 1.000000
vn 1.000000 0.000000 0.000000
vn 1.000000 0.000000 0.000000
vn 1.000000 0.000000 0.000000
vn 1.000000 0.000000 0.000000
vn 0.000000 0.000000 -1.000000
vn 0.000000 0.000000 -1.000000
vn 0.000000 0.000000 -1.000000
vn 0.000000 0.000000 -1.000000
vn -1.000000 0.000000 0.000000
vn -1.000000 0.000000 0.000000
vn -1.000000 0.000000 0.000000
vn -1.000000 0.000000 0.000000
vn 0.000000 0.000000 1.000000
vn 0.000000 0.000000 1.000000
vn 0.000000 0.000000 1.000000
vn 0.000000 0.000000 1.000000
vn 1.000000 0.000000 -0.000003
vn 1.000000 0.000000 -0.000003
vn 1.000000 0.000000 -0.000003
vn 1.000000 0.000000 -0.000003
vn 0.000000 0.000000 -1.000000
vn 0.000000 0.000000 -1.000000
vn 0.000000 0.000000 -1.000000
vn 0.000000 0.000000 -1.000000
vn -1.000000 0.000000 0.000000
vn -1.000000 0.000000 0.000000
vn -1.000000 0.000000 0.000000
vn -1.000000 0.000000 0.000000
vn -0.661499 -0.749946 0.000410
vn -0.661499 -0.749946 0.000410
vn -0.661499 -0.749946 0.000410
vn -0.661499 -0.749946 0.000410
s off
g pCube2
usemtl initialShadingGroup
f 1/1/1 2/2/2 4/3/3 3/4/4
f 96/13/5 97/14/6 98/15/7 99/16/8
f 100/17/9 101/18/10 102/19/11 103/20/12
f 104/21/13 105/22/14 106/23/15 107/24/16
f 9/25/17 10/26/18 12/27/19 11/28/20
s 1
f 11/28/21 12/27/22 14/39/23 13/40/24
f 13/40/24 14/39/23 16/41/25 15/42/26
f 15/42/26 16/41/25 2/2/27 1/1/28
s 2
f 14/39/29 12/46/30 10/47/31 8/48/32
f 16/41/33 14/39/29 8/48/32 6/50/34
f 2/51/35 16/41/33 6/50/34 4/52/36
s 3
f 11/53/37 13/40/38 7/55/39 9/56/40
f 13/40/38 15/42/41 5/58/42 7/55/39
f 15/42/41 1/59/43 3/60/44 5/58/42
s off
f 3/4/45 4/3/46 18/5/47 17/6/48
f 4/61/49 6/50/50 19/63/51 18/64/52
f 5/58/53 3/72/54 17/73/55 20/74/56
f 6/50/57 8/48/58 21/66/59 19/63/60
f 7/55/61 5/58/62 20/74/63 22/76/64
f 8/48/65 10/47/66 23/68/67 21/66/68
f 10/26/69 9/25/70 24/29/71 23/30/72
f 9/79/73 7/55/74 22/76/75 24/80/76
f 17/6/77 18/5/78 26/7/79 25/43/80
f 48/81/81 49/82/82 50/83/83 51/84/84
f 19/85/85 20/86/86 28/87/87 27/88/88
f 53/95/89 52/96/90 54/97/91 55/98/92
f 20/86/93 19/85/94 30/89/95 29/90/96
f 19/63/97 21/66/98 31/69/99 30/70/100
f 21/99/101 22/100/102 32/101/103 31/102/104
f 22/76/105 20/74/106 29/77/107 32/78/108
f 22/100/109 21/99/110 34/103/111 33/104/112
f 56/105/113 57/110/114 58/111/115 59/106/116
f 23/30/117 24/29/118 36/31/119 35/32/120
f 61/113/121 60/114/122 62/115/123 63/116/124
f 25/8/125 26/44/126 38/11/127 37/12/128
f 26/117/129 27/118/130 39/119/131 38/120/132
f 30/121/133 31/122/134 42/123/135 41/124/136
f 32/127/137 29/128/138 40/129/139 43/130/140
f 34/133/141 35/134/142 46/135/143 45/136/144
f 35/137/145 36/138/146 47/139/147 46/140/148
f 36/141/149 33/142/150 44/143/151 47/144/152
f 18/5/153 19/146/154 49/147/155 48/9/156
f 19/85/157 27/88/158 50/83/159 49/82/160
f 27/149/161 26/7/162 51/10/163 50/152/164
f 26/7/165 18/5/166 48/9/167 51/10/168
f 20/74/169 17/73/170 52/96/171 53/95/172
f 17/6/173 25/43/174 54/159/175 52/160/176
f 25/43/177 28/87/178 55/92/179 54/159/180
f 28/87/181 20/86/182 53/91/183 55/92/184
f 21/66/185 23/68/186 57/110/187 56/105/188
f 23/30/189 35/32/190 58/35/191 57/36/192
f 35/169/193 34/170/194 59/106/195 58/111/196
f 34/103/197 21/99/198 56/105/199 59/106/200
f 24/80/201 22/76/202 60/114/203 61/113/204
f 22/100/205 33/104/206 62/107/207 60/108/208
f 33/177/209 36/178/210 63/116/211 62/115/212
f 36/31/213 24/29/214 61/33/215 63/34/216
s 4
f 37/181/217 38/182/218 65/183/219 64/184/220
s off
f 38/182/221 39/192/222 66/193/223 65/183/224
s 5
f 39/195/225 40/196/226 67/197/227 66/198/228
s off
f 40/205/229 37/181/230 64/184/231 67/208/232
f 40/209/233 41/210/234 69/211/235 68/212/236
f 41/124/237 42/123/238 70/125/239 69/126/240
f 42/213/241 43/214/242 71/215/243 70/216/244
f 43/130/245 40/129/246 68/131/247 71/132/248
s 6
f 44/156/249 45/218/250 73/219/251 72/155/252
s off
f 45/227/253 46/148/254 74/145/255 73/151/256
s 7
f 46/150/257 47/94/258 75/171/259 74/112/260
s off
f 47/161/261 44/156/262 72/155/263 75/154/264
s 4
f 64/184/220 65/183/219 77/185/265 76/186/266
s off
f 65/153/267 66/198/268 78/200/269 77/174/270
s 5
f 66/198/228 67/197/227 79/199/271 78/200/272
s off
f 67/197/273 64/176/274 76/175/275 79/199/276
s 6
f 72/155/252 73/219/251 81/221/277 80/222/278
s off
f 73/151/279 74/145/280 82/164/281 81/224/282
s 7
f 74/112/260 75/171/259 83/172/283 82/109/284
s off
f 75/171/285 72/168/286 80/165/287 83/172/288
f 68/212/289 69/211/290 85/223/291 84/163/292
f 69/189/293 70/162/294 86/194/295 85/166/296
f 70/216/297 71/215/298 87/180/299 86/217/300
f 71/173/301 68/158/302 84/157/303 87/190/304
f 76/186/305 77/185/306 89/187/307 88/188/308
f 77/185/309 78/207/310 90/206/311 89/187/312
f 78/200/313 79/199/314 91/201/315 90/202/316
f 79/191/317 76/186/318 88/188/319 91/226/320
f 80/222/321 81/221/322 93/65/323 92/45/324
f 81/224/325 82/164/326 94/67/327 93/65/328
s 7
f 82/109/284 83/172/283 95/93/329 94/67/330
s off
f 83/225/331 80/222/332 92/45/333 95/220/334
f 88/188/335 89/187/336 97/14/337 96/13/338
f 89/187/339 90/202/340 98/204/341 97/14/342
f 90/202/343 91/201/344 99/203/345 98/204/346
f 91/167/347 88/188/348 96/13/349 99/179/350
f 84/163/351 85/223/352 101/18/353 100/17/354
f 85/166/355 86/194/356 102/19/357 101/18/358
f 86/217/359 87/180/360 103/20/361 102/19/362
f 87/190/363 84/157/364 100/17/365 103/20/366
f 92/45/367 93/65/368 105/62/369 104/75/370
f 93/65/371 94/67/372 106/23/373 105/62/374
f 94/67/375 95/93/376 107/24/377 106/23/378
f 95/49/379 92/45/380 104/75/381 107/71/382
f 54/57/383 37/37/384 40/38/385 55/54/386
